<?xml version="1.0" encoding="UTF-8" standalone="no"?>
<!DOCTYPE svg PUBLIC "-//W3C//DTD SVG 1.1//EN" "http://www.w3.org/Graphics/SVG/1.1/DTD/svg11.dtd">
<svg width="100%" height="100%" viewBox="0 0 14478 10227" version="1.1" xmlns="http://www.w3.org/2000/svg" xmlns:xlink="http://www.w3.org/1999/xlink" xml:space="preserve" xmlns:serif="http://www.serif.com/" style="fill-rule:evenodd;clip-rule:evenodd;stroke-linejoin:round;stroke-miterlimit:2;">
    <g id="handwritten-signature-logo-V1-black" serif:id="handwritten signature logo V1 black" transform="matrix(4.16667,0,0,4.16667,0,5426.86)">
        <rect x="0" y="0" width="1629.09" height="1152" style="fill:none;"/>
        <g id="Layer-12" serif:id="Layer 1">
            <rect x="0" y="0" width="1626.47" height="1152" style="fill:none;"/>
            <g transform="matrix(1.45833,0,0,-1.45833,291.496,398.893)">
                <path d="M0,-238.219C-0.785,-238.031 -1.508,-237.73 -2.254,-237.426C-3.082,-237.086 -3.863,-236.582 -4.59,-236.059C-5.785,-235.199 -6.918,-234.301 -7.867,-233.16C-9.484,-231.219 -10.512,-228.93 -10.203,-226.375C-9.887,-223.719 -8.457,-221.215 -7.078,-218.969C-5.621,-216.598 -3.883,-214.371 -2.164,-212.18C-0.254,-209.742 1.805,-207.426 3.898,-205.145C7.981,-200.695 12.258,-196.442 16.684,-192.332C21.117,-188.215 25.707,-184.293 30.285,-180.34C31.375,-179.398 32.441,-178.41 33.578,-177.523C35.316,-176.168 37.051,-174.817 38.789,-173.461C41.141,-171.629 43.492,-169.797 45.844,-167.965C46.688,-167.309 47.516,-166.621 48.391,-166.004C52.559,-163.059 56.731,-160.117 60.898,-157.176C63.484,-155.348 66.039,-153.461 68.688,-151.715C73.168,-148.762 77.648,-145.805 82.133,-142.848C84.789,-141.098 87.414,-139.281 90.117,-137.606C94.605,-134.82 99.09,-132.035 103.57,-129.25C106.332,-127.531 109.07,-125.766 111.871,-124.113C119.125,-119.836 126.336,-115.477 133.652,-111.309C141.66,-106.754 149.652,-102.184 157.711,-97.719C160.086,-96.402 162.461,-95.09 164.84,-93.777C166.508,-91.363 168.059,-88.863 169.406,-86.262C170.195,-84.664 170.934,-83.047 171.563,-81.375C172.199,-79.68 172.605,-77.91 172.891,-76.125C173.008,-75.02 173.039,-73.938 172.934,-72.828C172.844,-72.336 172.73,-71.859 172.602,-71.375C172.063,-71.246 171.523,-71.133 170.977,-71.039C169.387,-70.867 167.801,-70.809 166.199,-70.867C163.859,-71.023 161.535,-71.289 159.211,-71.543C157.91,-71.688 156.613,-71.832 155.313,-71.977C154.809,-72.031 154.297,-72.066 153.793,-72.148C151.664,-72.504 149.535,-72.859 147.406,-73.215C146.031,-73.441 144.641,-73.617 143.289,-73.945C139.918,-74.766 136.512,-75.492 133.184,-76.465C129.195,-77.629 125.215,-78.797 121.227,-79.957C116.891,-81.422 112.555,-82.883 108.223,-84.348C106.617,-84.891 105.047,-85.555 103.469,-86.172C101.481,-86.945 99.473,-87.68 97.5,-88.496C89.453,-91.828 81.43,-95.191 73.481,-98.754C69.363,-100.602 65.254,-102.488 61.234,-104.539C59.063,-105.648 56.875,-106.734 54.727,-107.883C53.523,-108.527 52.32,-109.168 51.117,-109.809C49.973,-110.422 48.844,-111.07 47.641,-111.567C46.746,-111.937 45.816,-111.75 44.926,-111.457C44.113,-111.191 43.332,-110.809 42.594,-110.352C41.75,-111.524 40.918,-112.699 40.09,-113.875C38.813,-113.348 37.336,-113.414 36.031,-113.848C35.121,-114.149 34.273,-114.524 33.449,-114.957C32.958,-115.146 32.467,-115.333 31.975,-115.52C31.792,-115.409 31.606,-115.301 31.418,-115.199C30.813,-114.871 30.195,-114.484 29.551,-114.258C29.347,-114.185 29.147,-114.118 28.947,-114.056C30.348,-111.875 31.779,-109.714 33.238,-107.57C40.043,-97.586 47.332,-87.906 55.328,-78.84C63.422,-69.668 72.148,-61.066 81.332,-52.992C90.367,-45.043 99.883,-37.676 109.914,-31.031C112.453,-29.348 115.008,-27.703 117.617,-26.133C120.137,-24.617 122.656,-23.098 125.176,-21.582C127.766,-20.023 130.348,-18.496 132.984,-17.023C135.293,-15.734 137.602,-14.445 139.91,-13.156C140.906,-12.602 141.891,-12.02 142.906,-11.5C144.984,-10.434 147.063,-9.367 149.141,-8.301C150.484,-7.613 151.816,-6.863 153.195,-6.234C155.297,-5.27 157.402,-4.305 159.508,-3.34C160.527,-2.871 161.551,-2.41 162.57,-1.941C163.789,-1.379 165.031,-0.906 166.32,-0.516C167.578,-0.137 168.949,-0.102 170.246,0.074C171.82,0.281 173.453,-0.606 174.715,-1.441C175.523,-1.98 176.285,-2.606 176.961,-3.301C177.633,-3.996 178.367,-4.84 178.699,-5.77C179.113,-6.926 179.652,-8.012 179.918,-9.219C180.144,-10.258 179.84,-11.309 179.484,-12.277C178.598,-14.668 176.711,-16.645 175.074,-18.539C174.215,-19.527 173.398,-20.547 172.539,-21.535C171.617,-22.606 170.641,-23.633 169.652,-24.648C167.512,-26.855 165.246,-28.938 162.992,-31.027C156.891,-36.672 150.551,-42.09 143.883,-47.059C139.383,-50.41 134.883,-53.762 130.379,-57.113C127.754,-59.07 125.016,-60.879 122.316,-62.734C118.496,-65.363 114.68,-67.988 110.859,-70.617C110.184,-71.082 109.508,-71.543 108.828,-72C109.008,-71.938 109.191,-71.875 109.375,-71.813C110.684,-71.367 111.984,-70.902 113.309,-70.516C115.961,-69.738 118.609,-68.961 121.258,-68.184C122.82,-67.723 124.379,-67.207 125.957,-66.816C128.516,-66.188 131.078,-65.563 133.637,-64.934C135.195,-64.551 136.754,-64.289 138.34,-64.02C140.609,-63.637 142.879,-63.262 145.148,-62.875C145.938,-62.742 146.75,-62.695 147.543,-62.606C149.094,-62.43 150.648,-62.254 152.203,-62.082C156.144,-61.637 160.09,-61.238 164.051,-61.723C170.527,-62.516 176.707,-65.898 180.738,-71.063C182.418,-73.215 183.543,-75.648 184.027,-78.336C184.313,-79.941 184.273,-81.574 184.059,-83.188C190.117,-79.863 196.215,-76.609 202.391,-73.5C206.313,-71.531 210.242,-69.59 214.203,-67.699C217.723,-66.02 221.262,-64.383 224.781,-62.707C226.137,-62.063 227.492,-61.422 228.84,-60.766C229.477,-60.457 230.109,-60.148 230.742,-59.836C231.254,-59.578 231.758,-59.324 232.254,-59.039C232.926,-58.648 233.633,-58.594 234.391,-58.617C235.031,-58.641 235.672,-58.871 236.254,-59.129C237.266,-59.582 238.199,-60.23 239.023,-60.969C239.707,-61.582 240.356,-62.285 240.809,-63.09C241.055,-63.535 241.441,-64.301 241.211,-64.836C240.781,-65.84 240.371,-66.84 239.867,-67.813C239.234,-69.027 238.313,-70.141 237.488,-71.23C236.488,-72.551 235.461,-73.855 234.418,-75.141C232.688,-77.277 230.961,-79.414 229.23,-81.551C228.211,-82.813 227.156,-84.039 226.105,-85.277C224.75,-86.867 223.418,-88.484 222.039,-90.055C216.328,-96.555 210.59,-103.031 204.926,-109.574C199.414,-115.945 194.055,-122.445 188.691,-128.945C183.477,-135.27 178.289,-141.613 173.09,-147.949C168.262,-153.836 163.359,-159.731 158.969,-165.969C159.027,-165.922 159.086,-165.875 159.148,-165.828C161.313,-164.113 163.473,-162.391 165.652,-160.684C168.469,-158.289 171.32,-155.938 174.113,-153.52C177.328,-150.734 180.523,-147.93 183.762,-145.176C187.281,-142.176 190.754,-139.109 194.332,-136.18C197.746,-133.383 201.144,-130.563 204.555,-127.754C207.996,-124.918 211.519,-122.172 215,-119.383C218.387,-116.672 221.813,-114.008 225.215,-111.32C231.688,-106.219 238.313,-101.313 244.953,-96.434C251.813,-91.391 258.766,-86.469 265.723,-81.559C272.129,-77.035 278.68,-72.676 285.34,-68.531C290.27,-65.457 295.195,-62.375 300.207,-59.434C302.93,-57.836 305.668,-56.273 308.422,-54.727C309.656,-54.035 310.918,-53.375 312.164,-52.699C313.129,-52.18 314.023,-51.547 315.059,-51.176C317.176,-50.422 319.422,-51.488 321.23,-52.563C323.016,-53.617 324.695,-54.934 325.891,-56.648C326.48,-57.488 327.426,-59.031 326.66,-60.047C325.73,-61.281 324.848,-62.527 323.793,-63.66C322.543,-65.008 321.121,-66.203 319.758,-67.434C318.684,-68.398 317.566,-69.32 316.473,-70.266C314.492,-71.977 312.477,-73.641 310.473,-75.316C310.441,-75.344 310.406,-75.375 310.375,-75.402C310.379,-75.395 310.387,-75.391 310.391,-75.387C310.379,-75.395 310.371,-75.402 310.363,-75.41C310.367,-75.406 310.367,-75.402 310.371,-75.398C309.996,-75.715 309.621,-76.027 309.246,-76.34C308.871,-76.656 308.496,-76.969 308.121,-77.281C307.93,-77.441 307.738,-77.602 307.551,-77.758C307.356,-77.965 307.109,-78.137 306.895,-78.309C303.664,-81.035 300.43,-83.758 297.223,-86.516C296.977,-86.801 296.668,-86.973 296.293,-87.023C295.816,-87.094 295.34,-87.074 294.871,-86.961C293.164,-86.625 291.559,-85.641 290.207,-84.586C289.215,-83.816 288.254,-82.914 287.512,-81.883C286.859,-82.301 286.211,-82.727 285.574,-83.156C283.574,-84.516 281.574,-85.871 279.574,-87.23C272.461,-92.066 265.492,-97.117 258.496,-102.125C251.578,-107.078 244.801,-112.215 238.027,-117.363C232.719,-121.399 227.5,-125.551 222.285,-129.707C219.363,-132.035 216.41,-134.34 213.516,-136.711C210.316,-139.332 207.125,-141.957 203.93,-144.57C197.305,-150.195 190.688,-155.832 184.102,-161.492C182.805,-162.606 181.488,-163.695 180.18,-164.793C178.457,-166.238 176.777,-167.75 175.004,-169.137C170.281,-172.828 165.668,-176.75 160.516,-179.844C158.23,-181.219 155.883,-182.391 153.25,-182.926C151.988,-183.18 150.617,-182.957 149.414,-182.559C147.512,-181.934 145.703,-180.801 144.219,-179.473C142.383,-177.828 140.484,-175.57 140.844,-172.934C141.074,-171.231 142.109,-169.711 142.945,-168.238C144.863,-164.856 147.07,-161.606 149.383,-158.484C154.613,-151.43 160.238,-144.707 165.859,-137.969C171.004,-131.801 176.141,-125.629 181.305,-119.477C184.188,-116.051 187.074,-112.633 189.992,-109.238C192.945,-105.809 195.941,-102.422 198.949,-99.043C203.758,-93.633 208.746,-88.391 213.566,-82.988C216.082,-80.168 218.633,-77.371 221.09,-74.496C221.723,-73.754 222.356,-73.012 222.992,-72.27C220.867,-73.234 218.754,-74.234 216.672,-75.273C212.992,-77.117 209.313,-78.961 205.703,-80.941C201.582,-83.203 197.481,-85.5 193.387,-87.82C188.672,-90.496 184,-93.242 179.34,-96.008C178.203,-98.055 176.934,-100.023 175.625,-101.961C172.227,-106.984 168.32,-111.645 164.254,-116.137C161.652,-119.004 159.008,-121.855 156.25,-124.57C154.5,-126.293 152.746,-128.02 150.996,-129.746C148.863,-131.844 146.73,-133.945 144.598,-136.043C143.742,-136.887 142.91,-137.77 142.019,-138.574C138.238,-141.992 134.457,-145.414 130.676,-148.832C127.957,-151.293 125.145,-153.637 122.348,-156.008C119.434,-158.484 116.539,-160.977 113.566,-163.383C111.234,-165.27 108.902,-167.16 106.57,-169.047C105.305,-170.07 104.059,-171.121 102.777,-172.117C98.891,-175.129 95.012,-178.148 91.129,-181.16C87.891,-183.672 84.574,-186.09 81.293,-188.543C74.824,-193.375 68.313,-198.16 61.746,-202.855C58.219,-205.379 54.68,-207.871 51.098,-210.317C47.41,-212.836 43.703,-215.313 39.973,-217.773C36.707,-219.93 33.434,-222.09 30.121,-224.176C26.309,-226.57 22.48,-228.914 18.609,-231.215C15.09,-233.301 11.41,-235.117 7.676,-236.785C6.984,-237.094 6.293,-237.387 5.59,-237.664C5.012,-237.895 4.394,-238.067 3.797,-238.25C3.574,-238.305 3.348,-238.363 3.121,-238.418C2.672,-238.449 2.223,-238.477 1.777,-238.5C1.176,-238.43 0.586,-238.359 0,-238.219ZM139.566,-119.563C135.719,-121.926 131.867,-124.281 128.016,-126.641C125.008,-128.484 121.961,-130.277 118.992,-132.184C114.703,-134.934 110.418,-137.692 106.133,-140.442C103.289,-142.266 100.398,-144.035 97.602,-145.934C93.434,-148.766 89.27,-151.602 85.102,-154.434C82.918,-155.918 80.731,-157.402 78.547,-158.887C77.82,-159.379 77.082,-159.859 76.375,-160.375C72.332,-163.313 68.289,-166.25 64.246,-169.188C61.164,-171.426 58.055,-173.613 55.09,-176C51.016,-179.285 46.938,-182.559 42.871,-185.844C38.981,-189.344 35.016,-192.77 31.195,-196.348C28.539,-198.836 25.891,-201.336 23.301,-203.895C20.731,-206.43 18.258,-209.067 15.813,-211.723C13.391,-214.352 11.039,-217.043 8.824,-219.844C7.867,-221.051 6.926,-222.281 6.023,-223.539C6.668,-223.188 7.312,-222.836 7.957,-222.48C9.813,-221.465 11.613,-220.328 13.438,-219.246C15.316,-218.133 17.148,-216.938 19.004,-215.781C25.754,-211.57 32.41,-207.176 38.981,-202.692C42.543,-200.266 46.094,-197.836 49.602,-195.328C52.984,-192.914 56.359,-190.504 59.707,-188.047C62.996,-185.633 66.293,-183.234 69.559,-180.797C73.133,-178.129 76.758,-175.516 80.285,-172.785C82.609,-170.984 84.93,-169.184 87.254,-167.383C89.133,-165.926 91.047,-164.504 92.895,-163.008C97.082,-159.613 101.27,-156.219 105.469,-152.84C109.012,-149.828 112.563,-146.824 116.113,-143.817C118.895,-141.457 121.574,-138.984 124.285,-136.539C127.012,-134.078 129.809,-131.676 132.43,-129.098C136.387,-125.211 140.336,-121.324 144.289,-117.434C144.875,-116.859 145.457,-116.277 146.035,-115.695C143.871,-116.969 141.707,-118.25 139.566,-119.563ZM57.582,-91.02C58.367,-90.523 59.148,-90.031 59.934,-89.531C67.641,-84.633 75.305,-79.676 82.973,-74.715C86.223,-72.609 89.438,-70.453 92.668,-68.324C95.805,-66.254 98.973,-64.223 102.078,-62.106C106.398,-59.164 110.715,-56.223 115.031,-53.277C117.563,-51.555 120.082,-49.836 122.547,-48.02C126.266,-45.277 129.984,-42.535 133.703,-39.793C134.848,-38.949 135.992,-38.106 137.141,-37.258C139.918,-35.211 142.57,-32.961 145.223,-30.75C149.816,-26.895 154.289,-22.879 158.613,-18.715C160.711,-16.695 162.676,-14.566 164.563,-12.348C164.457,-12.395 164.348,-12.441 164.242,-12.488C162.719,-13.152 161.207,-13.816 159.719,-14.551C155.965,-16.406 152.188,-18.203 148.504,-20.199C145.895,-21.613 143.285,-23.027 140.676,-24.441C139.535,-25.059 138.379,-25.656 137.258,-26.313C132.848,-28.895 128.441,-31.477 124.031,-34.059C122.504,-34.953 121.02,-35.914 119.523,-36.859C116.176,-38.984 112.871,-41.168 109.621,-43.434C103.488,-47.711 97.586,-52.332 91.848,-57.125C91.852,-57.125 91.852,-57.121 91.855,-57.121C79.555,-67.469 67.977,-78.742 57.582,-91.02Z" style="fill:white;fill-rule:nonzero;"/>
            </g>
            <g transform="matrix(1.45833,0,0,-1.45833,575.881,305.155)">
                <path d="M0,-311.546C-1.445,-311.257 -2.809,-310.421 -3.953,-309.531C-5.02,-308.698 -6.043,-307.695 -6.703,-306.507C-7.082,-305.831 -7.492,-304.882 -6.992,-304.163C-2.91,-298.269 1.168,-292.378 5.262,-286.499C7.59,-283.152 9.856,-279.753 12.258,-276.46C18.004,-268.577 23.758,-260.695 29.5,-252.808C29.875,-252.288 30.301,-251.8 30.703,-251.3C32,-249.698 33.293,-248.097 34.586,-246.495C38.516,-241.624 42.449,-236.757 46.379,-231.886C49.586,-227.913 52.793,-223.945 56,-219.972C57.039,-218.683 58.117,-217.464 59.231,-216.238C66.973,-207.675 74.719,-199.113 82.461,-190.546C85.555,-187.128 88.645,-183.71 91.734,-180.292C92.715,-179.21 93.719,-178.179 94.742,-177.144C102.621,-169.183 110.5,-161.23 118.383,-153.273C122.273,-149.343 126.164,-145.413 130.059,-141.484C131.453,-140.073 132.813,-138.605 134.262,-137.249C147.969,-124.441 161.68,-111.636 175.395,-98.843C177.047,-97.304 178.816,-95.878 180.523,-94.402C184.981,-90.55 189.434,-86.695 193.891,-82.843C200.914,-76.769 207.938,-70.691 214.961,-64.616C215.551,-64.109 216.176,-63.636 216.785,-63.152C218.418,-61.851 220.051,-60.554 221.684,-59.253C226.582,-55.355 231.477,-51.456 236.375,-47.558C240.395,-44.363 244.41,-41.163 248.43,-37.968C249.574,-37.054 250.727,-36.167 251.902,-35.288C257.02,-31.46 262.168,-27.675 267.402,-24.007C272.574,-20.382 277.879,-16.96 283.219,-13.589C288.426,-10.304 293.727,-7.156 299.363,-4.648C301.957,-3.495 304.582,-2.37 307.266,-1.429C309.922,-0.495 312.625,0.091 315.449,0.067C317.691,0.048 320.012,-0.667 322.016,-1.613C324.316,-2.702 326.66,-4.445 327.918,-6.702C328.363,-7.499 328.621,-8.406 328.699,-9.316C328.781,-10.3 328.828,-11.355 328.629,-12.327C328.363,-13.648 327.898,-14.906 327.488,-16.183C327.066,-17.507 326.559,-18.816 326.031,-20.101C325.246,-22.011 324.504,-23.945 323.676,-25.835C321.773,-30.179 319.824,-34.491 317.832,-38.796C316.48,-41.714 315.043,-44.597 313.637,-47.491C313.004,-48.8 312.336,-50.089 311.68,-51.386C310.992,-52.753 310.34,-54.144 309.609,-55.488C308.625,-57.288 307.641,-59.085 306.656,-60.886C305.922,-62.226 305.098,-63.523 304.309,-64.831C303.48,-66.206 302.586,-67.534 301.699,-68.874C300.762,-70.286 299.682,-71.604 298.78,-73.034C298.768,-73.071 298.756,-73.109 298.744,-73.146C298.694,-73.95 297.415,-73.47 296.945,-73.21C296.18,-72.784 295.012,-71.902 294.969,-70.921C294.949,-70.441 295.293,-69.956 295.535,-69.585C295.844,-69.113 296.156,-68.64 296.457,-68.159C297.172,-67.027 297.871,-65.898 298.543,-64.741C299.793,-62.597 300.94,-60.403 302.101,-58.213C303.049,-56.247 303.997,-54.281 304.949,-52.316C305.785,-50.585 306.527,-48.808 307.313,-47.054C308.898,-43.499 310.492,-39.937 311.957,-36.331C313.566,-32.374 315.148,-28.417 316.656,-24.421C317.324,-22.652 317.961,-20.882 318.566,-19.093C319.753,-15.592 320.92,-12.086 321.607,-8.448C321.676,-7.757 321.677,-7.086 321.635,-6.404C320.934,-6.341 320.24,-6.327 319.533,-6.353C317.831,-6.532 316.205,-6.927 314.579,-7.45C311.98,-8.371 309.48,-9.534 306.961,-10.656C304.055,-11.952 301.242,-13.417 298.48,-14.995C293.113,-18.062 287.957,-21.519 282.805,-24.929C277.488,-28.448 272.309,-32.175 267.18,-35.968C264.719,-37.792 262.273,-39.636 259.832,-41.488C258.922,-42.175 258,-42.851 257.109,-43.57C248.945,-50.148 240.777,-56.718 232.613,-63.288C229.401,-65.875 226.2,-68.466 222.984,-71.041C216.317,-76.84 209.668,-82.662 203.012,-88.472C198.488,-92.417 193.969,-96.359 189.449,-100.304C188.019,-101.55 186.594,-102.796 185.164,-104.042C184.703,-104.445 184.227,-104.835 183.781,-105.253C170.16,-118.097 156.512,-130.909 142.879,-143.738C141.566,-144.976 140.336,-146.308 139.07,-147.593C135.293,-151.433 131.519,-155.273 127.742,-159.113C119.75,-167.238 111.762,-175.363 103.773,-183.488C99.648,-187.679 95.809,-192.144 91.879,-196.519C84.063,-205.226 76.25,-213.933 68.43,-222.636C67.301,-223.894 66.172,-225.132 65.113,-226.452C62.059,-230.261 59.008,-234.07 55.953,-237.878C52,-242.816 48.043,-247.749 44.09,-252.683C42.711,-254.402 41.336,-256.116 39.957,-257.835C39.477,-258.437 38.957,-259.023 38.504,-259.652C32.832,-267.495 27.133,-275.323 21.445,-283.159C19.215,-286.241 17.09,-289.406 14.922,-292.531C11.039,-298.116 7.16,-303.702 3.289,-309.296C2.855,-309.917 2.426,-310.542 1.992,-311.167C1.739,-311.532 1.281,-311.637 0.826,-311.637C0.53,-311.637 0.236,-311.592 0,-311.546Z" style="fill:white;fill-rule:nonzero;"/>
            </g>
            <g transform="matrix(1.45833,0,0,-1.45833,524.758,462.231)">
                <path d="M0,-176.22C-1.676,-175.665 -3.219,-174.626 -4.523,-173.454C-5.582,-172.505 -6.641,-171.356 -7.184,-170.017C-7.469,-169.309 -7.727,-168.071 -6.809,-167.661C-2.113,-165.556 2.574,-163.442 7.262,-161.317C8.148,-160.915 9.152,-161.138 10.035,-161.431C10.039,-161.432 10.043,-161.433 10.046,-161.434C10.084,-161.42 10.122,-161.406 10.16,-161.392C16.574,-158.974 22.984,-156.544 29.387,-154.099C40.215,-149.966 51.016,-145.743 61.906,-141.778C69.797,-138.907 77.688,-136.032 85.578,-133.161C89.91,-131.587 94.328,-130.278 98.719,-128.892C106.789,-126.341 114.859,-123.79 122.926,-121.239C126.688,-120.048 130.527,-119.161 134.348,-118.184C143.18,-115.931 152.012,-113.673 160.844,-111.415C164.535,-110.474 168.219,-109.423 171.953,-108.649C187.535,-105.423 203.121,-102.192 218.707,-98.966C229.141,-96.806 239.664,-95.102 250.156,-93.251C258.906,-91.708 267.652,-90.165 276.402,-88.622C279.539,-88.071 282.672,-87.466 285.824,-86.989C293.36,-85.853 300.895,-84.717 308.431,-83.58C308.18,-83.436 307.933,-83.287 307.688,-83.13C306.606,-82.438 305.617,-81.673 304.668,-80.809C303.563,-79.802 302.723,-78.692 301.949,-77.423C301.461,-76.626 301.121,-75.454 301.367,-74.52C301.368,-74.519 301.368,-74.518 301.368,-74.516C298.224,-76.045 295.08,-77.57 291.902,-79.032C288.688,-80.513 285.484,-81.997 282.219,-83.36C280.832,-83.938 279.426,-84.481 277.996,-84.942C276.379,-85.458 274.777,-86.017 273.125,-86.407C271.828,-86.716 270.422,-86.638 269.152,-86.27C267.773,-85.868 266.555,-85.204 265.281,-84.54C263.879,-83.809 262.566,-82.7 261.559,-81.485C261.094,-80.927 260.652,-80.309 260.379,-79.63C260.211,-79.216 260,-78.587 260.188,-78.138C260.379,-77.673 260.566,-77.212 260.758,-76.751C261.016,-76.126 261.41,-75.63 261.84,-75.114C262.441,-74.403 263.277,-73.837 263.984,-73.231C265.094,-72.282 266.203,-71.333 267.313,-70.384C269.087,-68.865 270.889,-67.375 272.703,-65.906C270.261,-67.124 267.82,-68.346 265.379,-69.567C259.742,-72.384 254.117,-75.224 248.481,-78.032C245.723,-79.407 242.938,-80.7 240.148,-82.005C234.785,-84.52 229.375,-86.938 223.582,-88.294C220.356,-89.048 217.094,-88.169 214.277,-86.567C212.857,-85.757 211.512,-84.67 210.427,-83.427C209.22,-84.144 208.013,-84.859 206.813,-85.583C204.242,-87.134 201.578,-88.532 198.953,-89.985C193.664,-92.919 188.32,-95.782 182.727,-98.106C181.016,-98.817 179.285,-99.532 177.508,-100.071C175.512,-100.677 173.527,-101.083 171.441,-101.235C167.648,-101.513 163.859,-100.009 160.898,-97.7C159.555,-96.653 158.184,-95.321 157.348,-93.821C156.988,-93.181 156.82,-92.528 156.633,-91.825C156.609,-91.642 156.586,-91.462 156.563,-91.278C156.594,-90.841 156.641,-90.403 156.699,-89.966C157.504,-88.177 158.871,-86.72 160.195,-85.294C162.316,-83.017 164.621,-80.927 166.961,-78.884C168.064,-77.92 169.171,-76.955 170.289,-76.002C167.1,-77.064 163.91,-78.124 160.724,-79.194C160.815,-79.163 160.907,-79.132 160.996,-79.099C150.773,-82.575 140.481,-85.981 130.566,-90.286C127.719,-91.524 124.883,-92.79 122.051,-94.071C119.91,-95.04 117.781,-96.044 115.617,-96.958C115.195,-97.135 114.773,-97.312 114.351,-97.489C115.25,-97.441 116.148,-97.383 117.043,-97.333C117.813,-97.29 118.715,-98.067 119.168,-98.614C119.508,-99.02 119.961,-99.884 119.098,-99.927C116.266,-100.059 113.445,-100.106 110.613,-100.052C109.765,-100.035 108.918,-100.019 108.071,-100.007C107.783,-100.112 107.497,-100.218 107.211,-100.325C105.141,-101.106 103.059,-101.821 100.918,-102.399C99.465,-102.794 98,-102.95 96.504,-102.888C95.438,-102.845 94.391,-102.22 93.469,-101.743C92.465,-101.22 91.508,-100.384 90.859,-99.454C90.438,-98.849 89.941,-97.938 90.648,-97.372C90.82,-97.157 91.039,-97.024 91.305,-96.974C91.711,-96.864 92.125,-96.806 92.547,-96.794C93.305,-96.774 94.047,-96.77 94.805,-96.786C94.931,-96.788 95.058,-96.791 95.184,-96.794C95.642,-96.657 96.097,-96.512 96.551,-96.36C96.438,-96.395 96.328,-96.434 96.219,-96.47C102.465,-94.145 108.375,-91.099 114.34,-88.145C117.344,-86.657 120.355,-85.184 123.395,-83.763C124.523,-83.231 125.652,-82.72 126.801,-82.227C128.238,-81.606 129.664,-80.938 131.121,-80.372C136.918,-78.13 142.723,-75.938 148.566,-73.825C154.5,-71.681 160.438,-69.552 166.383,-67.446C176.453,-63.876 186.516,-60.255 196.246,-55.829C197.043,-55.466 197.945,-55.669 198.738,-55.931C199.969,-56.337 201.113,-57.04 202.133,-57.837C203.066,-58.563 203.941,-59.407 204.621,-60.38C205.078,-61.036 205.852,-62.235 205.504,-63.099C205.398,-63.388 205.273,-63.665 205.125,-63.934C204.781,-64.349 204.395,-64.72 203.965,-65.044C203.219,-65.677 202.402,-66.22 201.621,-66.806C200.723,-67.477 199.836,-68.161 198.941,-68.841C197.238,-70.134 195.535,-71.431 193.828,-72.727C192.184,-73.981 190.5,-75.2 188.891,-76.505C186.995,-78.036 185.103,-79.567 183.211,-81.098C180.517,-83.419 177.84,-85.748 175.203,-88.134C174.894,-88.414 174.589,-88.7 174.287,-88.989C178.749,-87.072 183.071,-84.803 187.313,-82.47C189.16,-81.45 191.008,-80.434 192.852,-79.419C194.012,-78.782 195.195,-78.181 196.328,-77.509C202,-74.138 207.656,-70.763 213.273,-67.302C213.537,-67.139 213.801,-66.976 214.064,-66.813C215.706,-64.392 217.487,-62.072 219.359,-59.809C220.371,-58.587 221.469,-57.434 222.535,-56.263C223.945,-54.716 225.356,-53.165 226.766,-51.614C227.313,-51.017 227.91,-50.458 228.488,-49.888C230.117,-48.274 231.746,-46.665 233.375,-45.052C235.086,-43.36 236.777,-41.673 238.555,-40.052C241.707,-37.177 244.863,-34.298 248.016,-31.419C249.641,-29.934 251.32,-28.532 253.008,-27.118C256.195,-24.446 259.383,-21.774 262.574,-19.102C267.184,-15.235 272.059,-11.634 277.059,-8.29C280.395,-6.059 283.805,-3.989 287.395,-2.2C288.914,-1.442 290.457,-0.638 292.102,-0.169C292.836,0.042 293.563,0.276 294.332,0.292C295.309,0.316 296.219,0.202 297.188,0.085C298.512,-0.075 299.691,-0.724 300.73,-1.536C301.266,-1.95 301.766,-2.415 302.199,-2.934C302.606,-3.423 303.094,-4.059 303.203,-4.708C303.297,-5.286 303.359,-5.751 303.359,-6.337C303.359,-6.954 302.883,-7.528 302.527,-7.985C301.586,-9.2 300.563,-10.356 299.582,-11.54C298.219,-13.184 296.836,-14.809 295.457,-16.438C292.848,-19.509 290.039,-22.395 287.246,-25.298C284.633,-28.009 281.848,-30.559 279.117,-33.153C277.82,-34.388 276.426,-35.532 275.082,-36.716C273.664,-37.966 272.264,-39.25 270.813,-40.468C267.921,-42.885 265.025,-45.303 262.129,-47.724C259.699,-49.755 257.164,-51.673 254.68,-53.638C252.66,-55.235 250.637,-56.786 248.555,-58.294C245.715,-60.356 242.871,-62.415 240.031,-64.474C239.105,-65.145 238.117,-65.747 237.164,-66.38C235.172,-67.708 233.18,-69.032 231.184,-70.356C229.117,-71.731 227.047,-73.079 224.953,-74.399C223.413,-75.37 221.874,-76.343 220.336,-77.315C220.106,-77.735 219.881,-78.157 219.659,-78.581C219.55,-78.804 219.441,-79.028 219.333,-79.253C219.765,-79.116 220.197,-78.976 220.63,-78.838C225.409,-77.142 229.977,-74.859 234.563,-72.704C237.324,-71.407 240.063,-70.063 242.805,-68.712C248.445,-65.938 254.086,-63.165 259.754,-60.438C265.703,-57.575 271.688,-54.786 277.68,-52.013C280.246,-50.825 282.824,-49.661 285.406,-48.509C286.848,-47.864 288.289,-47.224 289.727,-46.579C290.598,-46.192 291.465,-45.809 292.32,-45.384C293.082,-45.005 293.488,-44.864 294.316,-44.77C295.203,-44.665 296.055,-44.934 296.859,-45.294C298.797,-46.157 300.48,-47.63 301.813,-49.263C302.465,-50.059 303.617,-51.559 302.891,-52.634C302.066,-53.849 301.281,-55.083 300.367,-56.239C299.137,-57.798 297.586,-59.138 296.129,-60.477C294.789,-61.704 293.41,-62.888 292.031,-64.075C289.883,-65.921 287.73,-67.767 285.56,-69.592C285.845,-69.453 286.13,-69.314 286.414,-69.173C290.684,-67.048 294.953,-64.927 299.227,-62.813C303.574,-60.661 307.934,-58.544 312.305,-56.438C314.254,-55.497 316.227,-54.591 318.199,-53.696C319.398,-53.149 320.598,-52.606 321.801,-52.059C322.504,-51.739 323.199,-51.411 323.898,-51.079C324.398,-50.833 324.918,-50.634 325.453,-50.474C326.203,-50.216 326.949,-50.13 327.738,-50.044C328.809,-49.923 329.832,-50.239 330.801,-50.673C332.121,-51.263 333.34,-52.106 334.414,-53.067C335.305,-53.868 336.148,-54.782 336.734,-55.833C337.203,-56.673 337.559,-57.606 337.059,-58.501C336.82,-58.927 336.582,-59.352 336.348,-59.778C335.945,-60.497 335.313,-61.056 334.73,-61.614C333.766,-62.548 332.66,-63.38 331.613,-64.22C330.285,-65.286 328.953,-66.352 327.625,-67.419C325.642,-69.004 323.656,-70.59 321.673,-72.172C320.607,-73.071 319.544,-73.973 318.478,-74.872C321.92,-74.082 325.323,-73.107 328.695,-72.075C332.656,-70.864 336.617,-69.653 340.582,-68.442C346.68,-66.579 352.773,-64.712 358.871,-62.849C364.977,-60.981 371.102,-59.192 377.227,-57.392C380.031,-56.567 382.863,-55.817 385.684,-55.04C388.531,-54.255 391.391,-53.595 394.273,-52.934C396.707,-52.376 399.133,-51.79 401.586,-51.321C404.586,-50.747 407.586,-50.099 410.606,-49.61C414.707,-48.95 418.852,-48.11 423.02,-47.997C424.734,-47.95 426.437,-47.927 428.152,-48.04C429.961,-48.161 431.715,-48.684 433.414,-49.286C437.094,-50.599 440.609,-52.868 443.18,-55.825C445.266,-58.227 446.664,-60.962 447.656,-63.97C447.978,-64.937 448.258,-65.904 448.49,-66.889C453.795,-66.434 459.103,-65.979 464.41,-65.524C465.578,-65.427 466.75,-65.395 467.922,-65.341C471.43,-65.173 474.937,-65.009 478.449,-64.845C487.41,-64.423 496.371,-64.001 505.336,-63.583C507.437,-63.481 509.539,-63.384 511.641,-63.286C515,-63.126 518.383,-63.173 521.746,-63.142C526.574,-63.095 531.398,-63.122 536.227,-63.259C540.242,-63.376 544.246,-63.677 548.254,-63.942C552.289,-64.212 556.312,-64.427 560.324,-64.966C563.855,-65.442 567.352,-66.399 570.598,-67.864C574.148,-69.47 576.953,-72.212 580.047,-74.501C581.281,-75.411 582.457,-76.63 583.207,-77.974C583.68,-78.821 584.039,-79.767 583.535,-80.669C583.242,-81.173 582.965,-81.688 582.707,-82.216C582.777,-82.083 582.844,-81.946 582.914,-81.813C582.191,-83.255 581.488,-84.649 580.437,-85.884C579.973,-86.431 579.281,-86.907 578.723,-87.349C578.027,-87.899 577.219,-88.329 576.449,-88.77C574.785,-89.72 573.078,-90.61 571.402,-91.54C569.215,-92.751 566.977,-93.872 564.738,-94.985C561.352,-96.669 557.883,-98.177 554.441,-99.743C552.078,-100.817 549.731,-101.954 547.324,-102.942C543.445,-104.536 539.562,-106.13 535.684,-107.72C533.418,-108.649 531.141,-109.509 528.844,-110.364C525.957,-111.438 523.082,-112.571 520.172,-113.587C512.57,-116.235 504.98,-118.931 497.332,-121.458C491.27,-123.466 485.168,-125.298 479.004,-126.958C475.859,-127.806 472.707,-128.606 469.523,-129.27C466.398,-129.923 463.23,-130.298 460.059,-130.606C454.637,-131.13 449.141,-130.915 444.008,-128.946C441.164,-127.856 438.449,-126.196 436.297,-124.028C434.543,-122.27 433.285,-120.298 432.352,-118.005C431.445,-115.778 431.219,-113.27 431.297,-110.892C431.391,-108.056 432.023,-105.227 432.578,-102.458C433.055,-100.059 433.57,-97.669 434.066,-95.274C435.325,-89.204 436.882,-83.184 437.75,-77.042C437.752,-77.028 437.753,-77.013 437.755,-76.999C435.127,-77.222 432.499,-77.446 429.871,-77.669C426.641,-77.946 423.406,-78.22 420.176,-78.493C419.215,-78.575 418.246,-78.634 417.289,-78.747C411.606,-79.427 405.918,-80.106 400.234,-80.79C385.563,-82.544 370.895,-84.309 356.227,-86.059C355.254,-86.173 354.289,-86.345 353.324,-86.493C350.285,-86.954 347.246,-87.411 344.203,-87.872C335.145,-89.239 326.086,-90.61 317.023,-91.977C307.027,-93.489 297.016,-94.892 287.059,-96.649C270.527,-99.571 253.996,-102.497 237.469,-105.419C226.711,-107.321 216.043,-109.708 205.352,-111.931C197.473,-113.571 189.594,-115.208 181.715,-116.845C180.613,-117.075 179.492,-117.263 178.398,-117.544C176.262,-118.091 174.125,-118.642 171.988,-119.188C163.613,-121.337 155.238,-123.485 146.867,-125.634C143.43,-126.517 139.992,-127.399 136.559,-128.282C135.402,-128.579 134.219,-128.821 133.082,-129.184C120.995,-133.024 108.891,-136.818 96.818,-140.706C90.382,-143.05 83.956,-145.42 77.523,-147.774C72.68,-149.552 67.832,-151.313 63.016,-153.161C50.688,-157.892 38.371,-162.657 26.039,-167.388C21.957,-168.954 17.875,-170.517 13.793,-172.071C10.102,-173.477 6.375,-174.821 2.727,-176.329C2.371,-176.476 2.01,-176.535 1.648,-176.535C1.096,-176.535 0.541,-176.397 0,-176.22ZM449.465,-121.424C452.89,-121.186 456.304,-120.766 459.68,-120.149C463.586,-119.438 467.43,-118.376 471.262,-117.341C478.808,-115.3 486.221,-112.874 493.64,-110.41C499.245,-108.451 504.849,-106.482 510.453,-104.52C513.301,-103.524 516.113,-102.411 518.937,-101.356C521.094,-100.552 523.242,-99.751 525.375,-98.876C530.957,-96.587 536.562,-94.36 542.062,-91.872C545.496,-90.317 548.934,-88.767 552.367,-87.212C554.844,-86.095 557.27,-84.856 559.684,-83.614C561.496,-82.684 563.262,-81.669 565.07,-80.735C566.612,-79.942 568.111,-79.159 569.503,-78.13C570.297,-77.387 570.909,-76.612 571.496,-75.673C571.618,-75.477 571.736,-75.278 571.851,-75.077C571.344,-74.899 570.834,-74.732 570.318,-74.574C568.624,-74.146 566.921,-73.827 565.188,-73.576C561.883,-73.187 558.564,-72.994 555.246,-72.767C551.598,-72.517 547.953,-72.227 544.297,-72.075C536.855,-71.767 529.402,-71.837 521.957,-71.923C517.168,-71.981 512.387,-72.247 507.602,-72.462C495.982,-72.985 484.362,-73.486 472.746,-74.034C464.919,-74.69 457.092,-75.354 449.265,-76.02C449.199,-82.115 448.131,-88.103 446.848,-94.063C446.23,-96.927 445.582,-99.786 444.996,-102.657C444.177,-106.69 443.216,-110.734 442.649,-114.811C442.454,-116.562 442.35,-118.251 442.492,-120.01C442.551,-120.37 442.618,-120.72 442.694,-121.068C443.114,-121.15 443.536,-121.225 443.96,-121.293C445.798,-121.471 447.619,-121.497 449.465,-121.424ZM423.621,-58.044C421.988,-58.313 420.336,-58.536 418.711,-58.852C415.332,-59.517 411.949,-60.177 408.57,-60.837C407.414,-61.063 406.273,-61.372 405.129,-61.642C402.93,-62.153 400.73,-62.669 398.531,-63.184C395.539,-63.884 392.598,-64.794 389.641,-65.622C377.648,-68.981 365.758,-72.716 353.856,-76.372C352.909,-76.662 351.962,-76.951 351.015,-77.241C351.108,-77.23 351.2,-77.219 351.293,-77.208C354.5,-76.825 357.707,-76.438 360.914,-76.056C376.742,-74.157 392.57,-72.267 408.398,-70.36C411.793,-69.954 415.211,-69.739 418.613,-69.446C425.163,-68.887 431.714,-68.327 438.265,-67.765C438.24,-66.377 438.163,-64.988 438.028,-63.597C437.782,-62.026 437.402,-60.519 436.924,-59.005C436.723,-58.459 436.511,-57.924 436.284,-57.392C436.282,-57.392 436.279,-57.391 436.277,-57.39C435.755,-57.266 435.224,-57.181 434.691,-57.134C434.937,-57.165 435.188,-57.2 435.437,-57.231C433.8,-57.123 432.17,-57.14 430.53,-57.186C428.211,-57.352 425.918,-57.665 423.621,-58.044ZM257.648,-35.755C256.172,-37.024 254.785,-38.415 253.367,-39.747C253.056,-40.039 252.745,-40.331 252.433,-40.623C254.321,-39.189 256.202,-37.747 258.074,-36.29C262.291,-33.004 266.443,-29.642 270.594,-26.274C272.805,-24.357 275.023,-22.45 277.238,-20.536C279.285,-18.77 281.227,-16.872 283.211,-15.036C283.361,-14.897 283.51,-14.758 283.658,-14.619C279.133,-17.748 274.827,-21.162 270.562,-24.63C266.257,-28.338 261.949,-32.046 257.648,-35.755Z" style="fill:white;fill-rule:nonzero;"/>
            </g>
            <g transform="matrix(1.45833,0,0,-1.45833,827.162,514.089)">
                <path d="M0,-7.258C-1.633,-6.352 -3.148,-5.125 -4.344,-3.687C-5.098,-2.781 -6.02,-1.543 -6.012,-0.293C-6.004,0.848 -5.086,1.211 -4.082,1.211C-2.848,1.211 -1.543,0.582 -0.492,0C1.141,-0.906 2.656,-2.133 3.852,-3.57C4.605,-4.477 5.527,-5.715 5.52,-6.965C5.512,-8.105 4.594,-8.469 3.59,-8.469C2.355,-8.469 1.051,-7.84 0,-7.258Z" style="fill:white;fill-rule:nonzero;"/>
            </g>
            <g transform="matrix(1.45833,0,0,-1.45833,477.042,722.048)">
                <path d="M0,-6.83C-0.969,-6.396 -1.859,-5.74 -2.594,-4.982C-3.156,-4.4 -4.859,-2.236 -3.207,-1.853C-2.316,-1.653 -1.443,-1.424 -0.57,-1.148C0.523,-0.755 1.57,-0.29 2.613,0.221C3.039,0.428 3.551,0.307 3.977,0.166C4.812,-0.111 5.582,-0.631 6.234,-1.213C6.762,-1.689 7.293,-2.264 7.562,-2.932C7.711,-3.295 7.828,-3.893 7.375,-4.111C6.477,-4.541 5.574,-4.975 4.711,-5.471C3.828,-5.978 2.988,-6.541 2.137,-7.1C1.966,-7.213 1.757,-7.258 1.535,-7.258C1,-7.258 0.383,-7.001 0,-6.83Z" style="fill:white;fill-rule:nonzero;"/>
            </g>
            <g transform="matrix(1.45833,0,0,-1.45833,300.471,537.564)">
                <path d="M0,-69.601C-1.313,-68.8 -2.461,-67.652 -3.172,-66.284C-3.836,-65.015 -4.172,-63.433 -3.523,-62.085C-3.059,-61.116 -2.453,-60.222 -1.875,-59.316C-1.375,-58.531 -0.875,-57.745 -0.375,-56.964C0.627,-55.403 1.621,-53.838 2.606,-52.266C6.448,-45.915 10.246,-39.538 14.121,-33.202C17.988,-26.886 21.98,-20.648 25.977,-14.409C27.535,-11.98 29.137,-9.577 30.769,-7.199C31.625,-5.949 32.477,-4.702 33.371,-3.484C33.793,-2.906 34.184,-2.281 34.652,-1.741C34.941,-1.409 35.227,-1.081 35.516,-0.753C35.621,-0.632 35.727,-0.511 35.828,-0.39C36.156,-0.015 36.512,0.134 36.957,0.337C38.805,1.18 41.406,-0.667 41.539,-2.62C41.566,-3.058 41.641,-3.523 41.523,-3.956C41.481,-4.124 41.383,-4.339 41.316,-4.511C41.129,-5.011 40.941,-5.507 40.75,-6.007C40.645,-6.281 40.484,-6.542 40.352,-6.804C40.02,-7.452 39.691,-8.101 39.359,-8.753C38.504,-10.433 37.547,-12.062 36.633,-13.71C34.832,-16.956 32.965,-20.171 31.125,-23.394C27.516,-29.73 23.926,-36.077 20.438,-42.48C18.094,-46.781 15.848,-51.14 13.594,-55.488C12.539,-57.515 11.516,-59.558 10.535,-61.62C9.583,-63.61 8.603,-65.593 7.727,-67.62C7.663,-67.823 7.603,-68.026 7.547,-68.234C7.231,-69.425 6.309,-70.277 5.133,-70.605C4.702,-70.726 4.259,-70.781 3.815,-70.781C2.474,-70.781 1.115,-70.281 0,-69.601Z" style="fill:white;fill-rule:nonzero;"/>
            </g>
            <g transform="matrix(1.45833,0,0,-1.45833,311.239,465.777)">
                <path d="M0,-115.483C-0.438,-115.46 -0.902,-115.307 -1.227,-114.999C-1.566,-114.671 -1.883,-114.323 -1.992,-113.85C-2.063,-113.553 -2.016,-113.237 -2.004,-112.94C-1.984,-112.561 -2.004,-112.038 -1.871,-111.674C-1.516,-110.706 -1.16,-109.733 -0.801,-108.76C-0.602,-108.217 -0.363,-107.714 -0.106,-107.19C0.449,-106.042 1.008,-104.897 1.566,-103.749C3.074,-100.651 4.758,-97.639 6.371,-94.596C9.531,-88.62 12.859,-82.729 16.117,-76.807C23.098,-64.124 29.973,-51.389 36.785,-38.612C39.887,-32.792 42.996,-26.975 45.981,-21.088C47.457,-18.178 48.863,-15.233 50.211,-12.256C51.688,-8.999 52.965,-5.639 54.617,-2.463C55.902,0.001 59.227,-0.604 61.184,-1.799C62.359,-2.518 63.391,-3.545 64.031,-4.776C64.5,-5.674 64.914,-6.971 64.551,-7.983C64.16,-9.073 63.754,-10.151 63.32,-11.221C63.004,-12.002 62.594,-12.756 62.219,-13.506C61.43,-15.096 60.625,-16.678 59.82,-18.256C58.246,-21.338 56.637,-24.393 54.973,-27.424C51.727,-33.338 48.363,-39.19 44.984,-45.03C41.336,-51.335 37.664,-57.628 33.984,-63.913C30.516,-69.839 27.012,-75.753 23.41,-81.596C19.801,-87.46 16.203,-93.335 12.469,-99.12C10.555,-102.089 8.672,-105.085 6.676,-107.995C5.66,-109.475 4.687,-110.983 3.566,-112.381C2.934,-113.171 2.359,-114.049 1.547,-114.663C1.066,-115.022 0.688,-115.484 0.061,-115.484C0.041,-115.484 0.021,-115.484 0,-115.483Z" style="fill:white;fill-rule:nonzero;"/>
            </g>
        </g>
    </g>
    
</svg>
