<svg xmlns="http://www.w3.org/2000/svg" xmlns:xlink="http://www.w3.org/1999/xlink" viewBox="0 0 512 512" width="32px" height="32px"><defs><linearGradient id="IJYTXmX4HLSDT2ZO8-nkja" x1="73.89" x2="439.74" y1="6.23" y2="507.99" gradientUnits="userSpaceOnUse"><stop offset="0" stop-color="#ff0a6c"/><stop offset="1" stop-color="#4a3cdb"/></linearGradient><linearGradient id="IJYTXmX4HLSDT2ZO8-nkjb" x1="-78.4" x2="287.45" y1="117.27" y2="619.03" xlink:href="#IJYTXmX4HLSDT2ZO8-nkja"/><linearGradient id="IJYTXmX4HLSDT2ZO8-nkjc" x1="148.6" x2="514.45" y1="-48.24" y2="453.51" xlink:href="#IJYTXmX4HLSDT2ZO8-nkja"/><linearGradient id="IJYTXmX4HLSDT2ZO8-nkjd" x1="-.82" x2="365.03" y1="60.71" y2="562.47" xlink:href="#IJYTXmX4HLSDT2ZO8-nkja"/></defs><g data-name="1 Email"><path fill="url(#IJYTXmX4HLSDT2ZO8-nkja)" d="M429.87,71.24H82.12A77.21,77.21,0,0,0,5,148.36v68.12a6,6,0,0,0,12,0V148.36A65.2,65.2,0,0,1,82.12,83.24H429.87A65.2,65.2,0,0,1,495,148.36V363.63a65.19,65.19,0,0,1-65.13,65.12H82.12A65.2,65.2,0,0,1,17,363.63V263.28a6,6,0,0,0-12,0V363.63a77.21,77.21,0,0,0,77.12,77.12H429.87A77.21,77.21,0,0,0,507,363.63V148.36A77.21,77.21,0,0,0,429.87,71.24Z"/><path fill="url(#IJYTXmX4HLSDT2ZO8-nkjb)" d="M11,250.38a6,6,0,0,0,6-6v-9a6,6,0,0,0-12,0v9A6,6,0,0,0,11,250.38Z"/><path fill="url(#IJYTXmX4HLSDT2ZO8-nkjc)" d="M429.87,71.24H82.12A76.4,76.4,0,0,0,26.56,94.9a6,6,0,0,0-.11,8.2L194.81,287.77a82.8,82.8,0,0,0,122.38,0L485.56,103.1a6,6,0,0,0-.11-8.21A76.47,76.47,0,0,0,429.87,71.24ZM308.32,279.68a70.78,70.78,0,0,1-104.64,0L39.26,99.34a64.43,64.43,0,0,1,42.86-16.1H429.87a64.5,64.5,0,0,1,42.88,16.1Z"/><path fill="url(#IJYTXmX4HLSDT2ZO8-nkjd)" d="M342.47,252a6,6,0,0,0-4.43-2h0a6,6,0,0,0-4.43,2l-25.28,27.72a70.78,70.78,0,0,1-104.64,0L178.4,252a6,6,0,0,0-8.87,0L26.45,408.9a6,6,0,0,0,.11,8.2,76.43,76.43,0,0,0,55.56,23.65H429.87a76.43,76.43,0,0,0,55.58-23.65,6,6,0,0,0,.11-8.2Zm87.4,176.79H82.12a64.42,64.42,0,0,1-42.86-16.09L174,264.91l20.84,22.86a82.8,82.8,0,0,0,122.38,0L338,264.91,472.75,412.66A64.49,64.49,0,0,1,429.87,428.75Z"/></g></svg>